<?xml version="1.0" encoding="UTF-8"?>
<svg width="229px" height="92px" viewBox="0 0 229 92" version="1.1" xmlns="http://www.w3.org/2000/svg" xmlns:xlink="http://www.w3.org/1999/xlink">
    <!-- Generator: Sketch 52.1 (67048) - http://www.bohemiancoding.com/sketch -->
    <title>Econaft_logo 2</title>
    <desc>Created with Sketch.</desc>
    <g id="Page-2" stroke="none" stroke-width="1" fill="none" fill-rule="evenodd">
        <g id="Econaft_logo-2">
            <path d="M9.50272059,82.4211765 L30.8352882,82.4211765 C33.1624824,82.4211765 34.9079118,84.3604824 34.9079118,86.6876765 C34.9079118,89.0148706 33.1624824,90.9541765 30.8352882,90.9541765 L4.84833235,90.9541765 C2.13326353,90.9541765 0,88.8209941 0,86.2997882 L0,50.4222235 C0,47.9010176 2.13326353,45.7678353 4.84833235,45.7678353 L31.0293,45.7678353 C33.3564941,45.7678353 35.1019235,47.7071412 35.1019235,50.0343353 C35.1019235,52.3615294 33.3564941,54.3008353 31.0293,54.3008353 L9.69665118,54.3008353 L9.69665118,63.9975 L27.7324529,63.9975 C30.0596471,63.9975 31.8050765,65.9368059 31.8050765,68.264 C31.8050765,70.5911941 30.0596471,72.5305 27.7324529,72.5305 L9.50272059,72.5305 L9.50272059,82.4211765 Z" id="Path" fill="#FFFFFF"></path>
            <path d="M49.8407294,81.0636353 C45.3803529,77.3789 44.2166882,72.7245118 44.7984529,67.1004706 C47.1256471,42.8587412 89.9849294,23.2715353 134.201618,26.1804941 C85.9123059,20.5564529 45.9621176,41.5013353 41.8894941,66.7125824 C40.9198412,72.9183882 42.6652706,79.3182059 47.7075471,83.3908294 L49.8407294,81.0636353 Z" id="Path" fill="#6EBE68"></path>
            <path d="M63.6100176,69.0399118 C61.2828235,69.0399118 59.9254176,67.2946176 56.6284353,67.2946176 C54.1073647,67.2946176 51.9740471,68.2642706 50.6165059,69.8156882 C49.2591,71.3671059 48.4833235,73.3065471 48.4833235,75.6337412 C48.4833235,77.9609353 49.2591,80.0941176 50.6165059,81.6456706 C51.9740471,83.1970882 54.1073647,83.9728647 56.6284353,83.9728647 C60.3131706,83.9728647 61.6707118,82.4213118 63.8040294,82.4213118 C65.9373471,82.4213118 67.2947529,84.1667412 67.2947529,86.1060471 C67.2947529,88.2393647 65.5494588,89.5969059 62.6403647,90.5665588 C60.7010588,91.1483235 58.5678765,91.5362118 56.4345588,91.5362118 C50.8105176,91.5362118 46.3500059,89.7907824 43.4410471,86.6879471 C40.9199765,83.9728647 39.5624353,80.2881294 39.5624353,75.6337412 C39.5624353,71.7549941 40.7259647,68.4581471 42.8592824,65.9370765 C45.9621176,62.0583294 51.0043941,59.9251471 56.6284353,59.9251471 C58.1799882,59.9251471 60.8950706,60.1190235 63.8040294,61.4765647 C65.9373471,62.4462176 67.2947529,63.8037588 67.2947529,65.7430647 C67.1008765,67.4884941 65.5494588,69.0399118 63.6100176,69.0399118 Z" id="Path" fill="#FFFFFF"></path>
            <path d="M87.6577353,59.9251471 C96.7725,59.9251471 104.141971,65.9370765 104.141971,75.8276176 C104.141971,85.7181588 96.7725,91.5362118 87.6577353,91.5362118 C78.5428353,91.5362118 71.3673765,85.7181588 71.3673765,75.8276176 C71.3673765,65.9370765 78.5428353,59.9251471 87.6577353,59.9251471 Z M87.6577353,84.1667412 C92.506,84.1667412 95.4149588,80.6760176 95.4149588,75.8276176 C95.4149588,70.9793529 92.506,67.4884941 87.6577353,67.4884941 C82.8093353,67.4884941 79.9003765,70.9793529 79.9003765,75.8276176 C79.9003765,80.6760176 83.0033471,84.1667412 87.6577353,84.1667412 Z" id="Shape" fill="#FFFFFF" fill-rule="nonzero"></path>
            <path d="M113.256871,59.9251471 C115.584065,59.9251471 117.135618,61.4765647 117.523371,63.6098824 C120.044576,61.0886765 123.341424,59.9251471 126.638271,59.9251471 C129.935118,59.9251471 133.231965,60.7009235 135.559294,62.8341059 C137.692882,64.7734118 139.049882,67.8763824 139.049882,72.3368941 L139.049882,87.2697118 C139.049882,89.5969059 136.916294,91.5362118 134.589506,91.5362118 C132.262312,91.5362118 130.129129,89.5969059 130.129129,87.2697118 L130.129129,74.6640882 C130.129129,72.5307706 129.935118,70.3974529 128.577576,69.0399118 C127.801935,68.0702588 126.444394,67.4884941 124.698965,67.4884941 C119.462812,67.4884941 117.523371,72.3368941 117.523371,76.6033941 L117.523371,87.2697118 C117.523371,89.5969059 115.390188,91.5362118 113.062994,91.5362118 C110.541788,91.5362118 108.602482,89.5969059 108.602482,87.2697118 L108.602482,64.1916471 C108.990371,61.8644529 110.929676,59.9251471 113.256871,59.9251471 Z" id="Path" fill="#FFFFFF"></path>
            <path d="M162.515294,72.1428824 L162.515294,71.5611176 C162.515294,70.0097 162.321824,68.8460353 161.546588,68.0702588 C160.77,67.1006059 159.606471,66.7127176 158.056,66.7127176 C154.564059,66.7127176 152.237,68.8460353 149.716471,68.8460353 C147.971176,68.8460353 146.612824,67.4884941 146.612824,65.7430647 C146.612824,63.6098824 148.358118,62.4462176 150.491706,61.4765647 C153.013588,60.5069118 156.115882,59.9251471 159.219529,59.9251471 C162.128353,59.9251471 166.200706,60.5069118 168.721235,63.4158706 C170.466529,65.1613 171.436588,67.6825059 171.436588,71.3671059 L171.436588,87.2697118 C171.436588,89.5969059 169.303,91.5362118 166.975941,91.5362118 C165.425471,91.5362118 164.067118,90.7604353 163.291882,89.5969059 C160.576529,91.1483235 158.056,91.5362118 155.145824,91.5362118 C149.523,91.5362118 145.062353,88.0453529 145.062353,82.2274353 C145.062353,74.4700765 153.788824,72.7246471 162.515294,72.1428824 Z M162.515294,83.7788529 L162.515294,77.9609353 C158.637765,78.1548118 153.400529,78.5427 153.400529,81.8395471 C153.400529,83.9728647 155.534118,84.9425176 157.861176,84.9425176 C159.413,84.9425176 160.964824,84.7485059 162.515294,83.7788529 Z" id="Shape" fill="#FFFFFF" fill-rule="nonzero"></path>
            <path d="M195.290294,60.5065059 C197.035588,60.5065059 198.587412,62.2519353 198.587412,63.9973647 C198.587412,65.9366706 197.035588,67.4880882 195.290294,67.4880882 L189.472647,67.4880882 L189.472647,87.2693059 C189.472647,89.5965 187.532529,91.5358059 185.012,91.5358059 C182.684941,91.5358059 180.551353,89.5965 180.551353,87.2693059 L180.551353,67.2942118 L178.417765,67.2942118 C176.479,67.2942118 175.122,65.7427941 175.122,63.8033529 C175.122,62.0580588 176.672471,60.3126294 178.417765,60.3126294 L180.551353,60.3126294 L180.551353,56.6278941 C180.551353,50.8098412 182.684941,44.9919235 190.829647,44.9919235 C193.351529,44.9919235 195.485118,45.3798118 197.617353,46.1554529 C199.944412,47.1251059 201.496235,48.4826471 201.496235,50.6159647 C201.496235,52.5552706 199.944412,53.9128118 198.199118,53.9128118 C196.453824,53.9128118 195.096824,52.7492824 192.769765,52.7492824 C190.247882,52.7492824 189.279176,54.1066882 189.279176,57.4036706 L189.279176,60.5065059 L195.290294,60.5065059 Z" id="Path" fill="#FFFFFF"></path>
            <path d="M208.090471,60.5067765 L208.090471,56.0462647 C208.090471,53.7190706 210.029235,51.7797647 212.551118,51.7797647 C214.878176,51.7797647 217.011765,53.7190706 217.011765,56.0462647 L217.011765,60.5067765 L223.022882,60.5067765 C224.963,60.5067765 226.32,62.0581941 226.32,63.9975 C226.32,65.9368059 224.768176,67.4883588 223.022882,67.4883588 L217.011765,67.4883588 L217.011765,80.0939824 C217.011765,83.0029412 217.980471,84.1666059 220.114059,84.1666059 C222.441118,84.1666059 223.411176,82.2271647 225.544765,82.2271647 C227.483529,82.2271647 228.840529,83.7787176 228.840529,85.7180235 C228.840529,87.6573294 227.095235,89.2087471 224.768176,90.3724118 C222.829412,91.1481882 220.502353,91.5359412 218.368765,91.5359412 C211.192765,91.5359412 208.283941,86.6876765 208.283941,80.8696235 L208.283941,67.4883588 L206.150353,67.4883588 C204.211588,67.4883588 202.854588,65.9368059 202.854588,63.9975 C202.854588,62.0581941 204.405059,60.5067765 206.150353,60.5067765 L208.090471,60.5067765 Z" id="Path" fill="#FFFFFF"></path>
            <path d="M158.442941,27.3440235 C125.474741,34.3256059 102.396676,65.3549059 75.8278882,36.2649118 C112.093341,48.8705353 123.147547,27.1500118 151.461765,25.0168294 C135.365824,8.92036059 102.784565,1.16303424 83.5851118,22.6896353 C93.2817765,19.5866647 109.766147,12.2172212 139.825118,23.6592882 C109.572271,18.2291235 86.6880824,25.5985941 71.7552647,33.3559529 C82.8094706,-9.30934471 128.189824,-9.89115 158.442941,27.3440235 Z" id="Path" fill="#6EBE68"></path>
        </g>
    </g>
</svg>