<?xml version="1.0" encoding="UTF-8"?>
<svg width="84px" height="50px" viewBox="0 0 84 50" version="1.1" xmlns="http://www.w3.org/2000/svg" xmlns:xlink="http://www.w3.org/1999/xlink">
    <!-- Generator: Sketch 52.1 (67048) - http://www.bohemiancoding.com/sketch -->
    <title>Econaft_logo 1</title>
    <desc>Created with Sketch.</desc>
    <g id="Page-2" stroke="none" stroke-width="1" fill="none" fill-rule="evenodd">
        <g id="Econaft_logo-1" fill="#6EBE68">
            <path d="M5.57741935,48.8377419 C2.54645161,46.9975806 1.75564516,44.6730645 2.15112903,41.8641935 C3.73241935,29.7574194 32.8566129,19.975 62.9032258,21.4279032 C30.0891935,18.6190323 2.94177419,29.0793548 0.174354839,41.6704839 C-0.484677419,44.7698387 0.701451613,47.966129 4.12774194,50 L5.57741935,48.8377419 Z" id="Path"></path>
            <path d="M83.485,22.4808065 C56.3809677,28.2204839 37.4080645,53.7301613 15.5653226,29.8148387 C45.3798387,40.1782258 54.4677419,22.3212903 77.7453226,20.5675806 C64.5120968,7.33437097 37.7269355,0.956929032 21.9427419,18.6543548 C29.9145161,16.1033387 43.4666129,10.0447742 68.1791935,19.4514516 C43.3070968,14.9872903 24.4937097,21.0458065 12.2170968,27.4232258 C21.305,-7.6526129 58.6130645,-8.13091935 83.485,22.4808065 Z" id="Path"></path>
        </g>
    </g>
</svg>